<mxfile host="app.diagrams.net" modified="2021-09-08T10:49:59.015Z" agent="5.0 (Macintosh; Intel Mac OS X 10_15_7) AppleWebKit/537.36 (KHTML, like Gecko) Chrome/92.0.4515.131 Safari/537.36" etag="pANhkoE5JxgqlpP0z3A5" version="15.0.6" type="github">
  <diagram id="xaBKiSZeemvhwFWQTI1J" name="Page-1">
    <mxGraphModel dx="4547" dy="3406" grid="1" gridSize="10" guides="1" tooltips="1" connect="1" arrows="1" fold="1" page="1" pageScale="1" pageWidth="827" pageHeight="1169" math="0" shadow="0">
      <root>
        <mxCell id="0" />
        <mxCell id="1" parent="0" />
        <mxCell id="XMP97ZdrjGqu_RQCuz5n-3" value="" style="whiteSpace=wrap;html=1;aspect=fixed;" vertex="1" parent="1">
          <mxGeometry x="40" y="120" width="300" height="300" as="geometry" />
        </mxCell>
        <mxCell id="XMP97ZdrjGqu_RQCuz5n-4" value="" style="whiteSpace=wrap;html=1;aspect=fixed;" vertex="1" parent="1">
          <mxGeometry x="442" y="70" width="360" height="360" as="geometry" />
        </mxCell>
        <mxCell id="XMP97ZdrjGqu_RQCuz5n-11" value="" style="edgeStyle=orthogonalEdgeStyle;rounded=0;orthogonalLoop=1;jettySize=auto;html=1;" edge="1" parent="1" source="XMP97ZdrjGqu_RQCuz5n-9" target="XMP97ZdrjGqu_RQCuz5n-10">
          <mxGeometry relative="1" as="geometry" />
        </mxCell>
        <mxCell id="XMP97ZdrjGqu_RQCuz5n-9" value="" style="shape=mxgraph.cisco.misc.car;html=1;pointerEvents=1;dashed=0;fillColor=#036897;strokeColor=#ffffff;strokeWidth=2;verticalLabelPosition=bottom;verticalAlign=top;align=center;outlineConnect=0;" vertex="1" parent="1">
          <mxGeometry x="120" y="520" width="130" height="90" as="geometry" />
        </mxCell>
        <mxCell id="XMP97ZdrjGqu_RQCuz5n-10" value="" style="whiteSpace=wrap;html=1;dashed=0;verticalAlign=top;strokeColor=#ffffff;strokeWidth=2;fillColor=#036897;" vertex="1" parent="1">
          <mxGeometry x="335" y="535" width="120" height="60" as="geometry" />
        </mxCell>
        <mxCell id="XMP97ZdrjGqu_RQCuz5n-15" value="" style="edgeStyle=orthogonalEdgeStyle;rounded=0;orthogonalLoop=1;jettySize=auto;html=1;" edge="1" parent="1" source="XMP97ZdrjGqu_RQCuz5n-12">
          <mxGeometry relative="1" as="geometry">
            <mxPoint x="190" y="410" as="targetPoint" />
          </mxGeometry>
        </mxCell>
        <mxCell id="XMP97ZdrjGqu_RQCuz5n-12" value="" style="shape=mxgraph.signs.transportation.car_1;html=1;pointerEvents=1;fillColor=#000000;strokeColor=none;verticalLabelPosition=bottom;verticalAlign=top;align=center;" vertex="1" parent="1">
          <mxGeometry x="115" y="420" width="50" height="50" as="geometry" />
        </mxCell>
        <mxCell id="XMP97ZdrjGqu_RQCuz5n-13" value="" style="shape=image;html=1;verticalAlign=top;verticalLabelPosition=bottom;labelBackgroundColor=#ffffff;imageAspect=0;aspect=fixed;image=https://cdn0.iconfinder.com/data/icons/kameleon-free-pack-rounded/110/Battery-Charging-128.png" vertex="1" parent="1">
          <mxGeometry x="165" y="350" width="50" height="50" as="geometry" />
        </mxCell>
        <mxCell id="XMP97ZdrjGqu_RQCuz5n-16" value="" style="shape=image;html=1;verticalAlign=top;verticalLabelPosition=bottom;labelBackgroundColor=#ffffff;imageAspect=0;aspect=fixed;image=https://cdn3.iconfinder.com/data/icons/google-material-design-icons/48/ic_battery_charging_20_48px-128.png" vertex="1" parent="1">
          <mxGeometry x="70" y="417.5" width="55" height="55" as="geometry" />
        </mxCell>
        <mxCell id="XMP97ZdrjGqu_RQCuz5n-17" value="" style="points=[[0.005,0.09,0],[0.08,0,0],[0.76,0.25,0],[1,0.92,0],[0.91,0.995,0],[0.57,0.995,0],[0.045,0.955,0],[0.005,0.43,0]];verticalLabelPosition=bottom;html=1;verticalAlign=top;aspect=fixed;align=center;pointerEvents=1;shape=mxgraph.cisco19.3g_4g_indicator;fillColor=#005073;strokeColor=none;" vertex="1" parent="1">
          <mxGeometry x="2140" y="1100" width="50" height="50" as="geometry" />
        </mxCell>
        <mxCell id="XMP97ZdrjGqu_RQCuz5n-18" value="" style="points=[[0.005,0.09,0],[0.08,0,0],[0.76,0.25,0],[1,0.92,0],[0.91,0.995,0],[0.57,0.995,0],[0.045,0.955,0],[0.005,0.43,0]];verticalLabelPosition=bottom;html=1;verticalAlign=top;aspect=fixed;align=center;pointerEvents=1;shape=mxgraph.cisco19.3g_4g_indicator;fillColor=#005073;strokeColor=none;" vertex="1" parent="1">
          <mxGeometry x="2140" y="1100" width="50" height="50" as="geometry" />
        </mxCell>
        <mxCell id="XMP97ZdrjGqu_RQCuz5n-20" value="" style="shape=image;html=1;verticalAlign=top;verticalLabelPosition=bottom;labelBackgroundColor=#ffffff;imageAspect=0;aspect=fixed;image=https://cdn2.iconfinder.com/data/icons/mobile-smart-phone/64/5g_4g_3g_conncection_carrier_mobile_data-128.png" vertex="1" parent="1">
          <mxGeometry x="920" y="371" width="49" height="49" as="geometry" />
        </mxCell>
        <mxCell id="XMP97ZdrjGqu_RQCuz5n-21" value="" style="shape=image;html=1;verticalAlign=top;verticalLabelPosition=bottom;labelBackgroundColor=#ffffff;imageAspect=0;aspect=fixed;image=https://cdn2.iconfinder.com/data/icons/mobile-smart-phone/64/phone_internet_wifi_3g_4g_5g-128.png" vertex="1" parent="1">
          <mxGeometry x="215" y="347.5" width="52.5" height="52.5" as="geometry" />
        </mxCell>
        <mxCell id="XMP97ZdrjGqu_RQCuz5n-22" value="" style="outlineConnect=0;dashed=0;verticalLabelPosition=bottom;verticalAlign=top;align=center;html=1;shape=mxgraph.aws3.management_console;fillColor=#F58534;gradientColor=none;" vertex="1" parent="1">
          <mxGeometry x="2130" y="1090" width="63" height="63" as="geometry" />
        </mxCell>
        <mxCell id="XMP97ZdrjGqu_RQCuz5n-23" value="" style="outlineConnect=0;dashed=0;verticalLabelPosition=bottom;verticalAlign=top;align=center;html=1;shape=mxgraph.aws3.management_console;fillColor=#F58534;gradientColor=none;" vertex="1" parent="1">
          <mxGeometry x="277" y="337" width="53" height="53" as="geometry" />
        </mxCell>
        <mxCell id="XMP97ZdrjGqu_RQCuz5n-24" value="" style="pointerEvents=1;shadow=0;dashed=0;html=1;strokeColor=none;fillColor=#434445;aspect=fixed;labelPosition=center;verticalLabelPosition=bottom;verticalAlign=top;align=center;outlineConnect=0;shape=mxgraph.vvd.vpn;" vertex="1" parent="1">
          <mxGeometry x="2140" y="910" width="50" height="50" as="geometry" />
        </mxCell>
        <mxCell id="XMP97ZdrjGqu_RQCuz5n-26" style="edgeStyle=orthogonalEdgeStyle;rounded=0;orthogonalLoop=1;jettySize=auto;html=1;" edge="1" parent="1" source="XMP97ZdrjGqu_RQCuz5n-25" target="XMP97ZdrjGqu_RQCuz5n-3">
          <mxGeometry relative="1" as="geometry" />
        </mxCell>
        <mxCell id="XMP97ZdrjGqu_RQCuz5n-28" value="" style="edgeStyle=orthogonalEdgeStyle;rounded=0;orthogonalLoop=1;jettySize=auto;html=1;" edge="1" parent="1" source="XMP97ZdrjGqu_RQCuz5n-25" target="XMP97ZdrjGqu_RQCuz5n-27">
          <mxGeometry relative="1" as="geometry" />
        </mxCell>
        <mxCell id="XMP97ZdrjGqu_RQCuz5n-25" value="" style="shape=mxgraph.cisco.misc.vpn_concentrator;html=1;pointerEvents=1;dashed=0;fillColor=#036897;strokeColor=#ffffff;strokeWidth=2;verticalLabelPosition=bottom;verticalAlign=top;align=center;outlineConnect=0;" vertex="1" parent="1">
          <mxGeometry x="570" y="490" width="64" height="59" as="geometry" />
        </mxCell>
        <mxCell id="XMP97ZdrjGqu_RQCuz5n-27" value="" style="shape=mxgraph.cisco.misc.vpn_concentrator;html=1;pointerEvents=1;dashed=0;fillColor=#036897;strokeColor=#ffffff;strokeWidth=2;verticalLabelPosition=bottom;verticalAlign=top;align=center;outlineConnect=0;" vertex="1" parent="1">
          <mxGeometry x="714" y="490" width="64" height="59" as="geometry" />
        </mxCell>
        <mxCell id="XMP97ZdrjGqu_RQCuz5n-29" value="" style="pointerEvents=1;shadow=0;dashed=0;html=1;strokeColor=none;fillColor=#005F4B;labelPosition=center;verticalLabelPosition=bottom;verticalAlign=top;align=center;outlineConnect=0;shape=mxgraph.veeam2.vpn;" vertex="1" parent="1">
          <mxGeometry x="2150" y="920" width="28.000000000000004" height="28.000000000000004" as="geometry" />
        </mxCell>
        <mxCell id="XMP97ZdrjGqu_RQCuz5n-30" value="" style="pointerEvents=1;shadow=0;dashed=0;html=1;strokeColor=none;fillColor=#005F4B;labelPosition=center;verticalLabelPosition=bottom;verticalAlign=top;align=center;outlineConnect=0;shape=mxgraph.veeam2.vpn;" vertex="1" parent="1">
          <mxGeometry x="180" y="240" width="43" height="40" as="geometry" />
        </mxCell>
        <mxCell id="XMP97ZdrjGqu_RQCuz5n-31" value="" style="rounded=1;whiteSpace=wrap;html=1;" vertex="1" parent="1">
          <mxGeometry x="2100" y="910" width="120" height="60" as="geometry" />
        </mxCell>
        <mxCell id="XMP97ZdrjGqu_RQCuz5n-32" value="Charge Point Operation" style="rounded=1;whiteSpace=wrap;html=1;" vertex="1" parent="1">
          <mxGeometry x="197" y="190" width="93" height="30" as="geometry" />
        </mxCell>
        <mxCell id="XMP97ZdrjGqu_RQCuz5n-33" value="" style="shape=ext;double=1;rounded=1;whiteSpace=wrap;html=1;" vertex="1" parent="1">
          <mxGeometry x="170" y="800" width="120" height="80" as="geometry" />
        </mxCell>
        <mxCell id="XMP97ZdrjGqu_RQCuz5n-35" value="" style="shape=image;html=1;verticalAlign=top;verticalLabelPosition=bottom;labelBackgroundColor=#ffffff;imageAspect=0;aspect=fixed;image=https://cdn3.iconfinder.com/data/icons/flat-actions-icons-9/792/Tick_Mark_Dark-128.png" vertex="1" parent="1">
          <mxGeometry x="140" y="240" width="40" height="40" as="geometry" />
        </mxCell>
        <mxCell id="XMP97ZdrjGqu_RQCuz5n-36" value="" style="shape=image;html=1;verticalAlign=top;verticalLabelPosition=bottom;labelBackgroundColor=#ffffff;imageAspect=0;aspect=fixed;image=https://cdn0.iconfinder.com/data/icons/users-android-l-lollipop-icon-pack/24/checked_user-128.png" vertex="1" parent="1">
          <mxGeometry x="480" y="346.75" width="56.5" height="56.5" as="geometry" />
        </mxCell>
        <mxCell id="XMP97ZdrjGqu_RQCuz5n-37" value="" style="shape=image;html=1;verticalAlign=top;verticalLabelPosition=bottom;labelBackgroundColor=#ffffff;imageAspect=0;aspect=fixed;image=https://cdn3.iconfinder.com/data/icons/basic-interface/100/block_user-128.png" vertex="1" parent="1">
          <mxGeometry x="2140" y="1030" width="128" height="128" as="geometry" />
        </mxCell>
        <mxCell id="XMP97ZdrjGqu_RQCuz5n-42" value="" style="shape=image;html=1;verticalAlign=top;verticalLabelPosition=bottom;labelBackgroundColor=#ffffff;imageAspect=0;aspect=fixed;image=https://cdn3.iconfinder.com/data/icons/miscellaneous-80/60/remove_user-128.png" vertex="1" parent="1">
          <mxGeometry x="472" y="720" width="80" height="80" as="geometry" />
        </mxCell>
        <mxCell id="XMP97ZdrjGqu_RQCuz5n-43" value="" style="shape=image;html=1;verticalAlign=top;verticalLabelPosition=bottom;labelBackgroundColor=#ffffff;imageAspect=0;aspect=fixed;image=https://cdn2.iconfinder.com/data/icons/metro-uinvert-dock/128/Security_Denied.png" vertex="1" parent="1">
          <mxGeometry x="920" y="130" width="30" height="30" as="geometry" />
        </mxCell>
        <mxCell id="XMP97ZdrjGqu_RQCuz5n-44" value="" style="shape=image;html=1;verticalAlign=top;verticalLabelPosition=bottom;labelBackgroundColor=#ffffff;imageAspect=0;aspect=fixed;image=https://cdn3.iconfinder.com/data/icons/basic-interface/100/block_user-128.png" vertex="1" parent="1">
          <mxGeometry x="600" y="250" width="44" height="44" as="geometry" />
        </mxCell>
        <mxCell id="XMP97ZdrjGqu_RQCuz5n-45" value="&lt;span style=&quot;color: rgba(0 , 0 , 0 , 0) ; font-family: monospace ; font-size: 0px ; background-color: rgb(248 , 249 , 250)&quot;&gt;%3CmxGraphModel%3E%3Croot%3E%3CmxCell%20id%3D%220%22%2F%3E%3CmxCell%20id%3D%221%22%20parent%3D%220%22%2F%3E%3CmxCell%20id%3D%222%22%20value%3D%22%22%20style%3D%22shape%3Dimage%3Bhtml%3D1%3BverticalAlign%3Dtop%3BverticalLabelPosition%3Dbottom%3BlabelBackgroundColor%3D%23ffffff%3BimageAspect%3D0%3Baspect%3Dfixed%3Bimage%3Dhttps%3A%2F%2Fcdn3.iconfinder.com%2Fdata%2Ficons%2Fbasic-interface%2F100%2Fblock_user-128.png%22%20vertex%3D%221%22%20parent%3D%221%22%3E%3CmxGeometry%20x%3D%22650%22%20y%3D%22250%22%20width%3D%2244%22%20height%3D%2244%22%20as%3D%22geometry%22%2F%3E%3C%2FmxCell%3E%3C%2Froot%3E%3C%2FmxGraphModel%3E&lt;/span&gt;" style="shape=image;html=1;verticalAlign=top;verticalLabelPosition=bottom;labelBackgroundColor=#ffffff;imageAspect=0;aspect=fixed;image=https://cdn3.iconfinder.com/data/icons/basic-interface/100/block_user-128.png" vertex="1" parent="1">
          <mxGeometry x="650" y="250" width="44" height="44" as="geometry" />
        </mxCell>
        <mxCell id="XMP97ZdrjGqu_RQCuz5n-48" style="edgeStyle=orthogonalEdgeStyle;rounded=0;orthogonalLoop=1;jettySize=auto;html=1;exitX=0;exitY=0.5;exitDx=0;exitDy=0;entryX=0.75;entryY=1;entryDx=0;entryDy=0;" edge="1" parent="1" source="XMP97ZdrjGqu_RQCuz5n-44" target="XMP97ZdrjGqu_RQCuz5n-44">
          <mxGeometry relative="1" as="geometry" />
        </mxCell>
        <mxCell id="XMP97ZdrjGqu_RQCuz5n-50" value="&lt;span style=&quot;color: rgba(0 , 0 , 0 , 0) ; font-family: monospace ; font-size: 0px ; background-color: rgb(248 , 249 , 250)&quot;&gt;%3CmxGraphModel%3E%3Croot%3E%3CmxCell%20id%3D%220%22%2F%3E%3CmxCell%20id%3D%221%22%20parent%3D%220%22%2F%3E%3CmxCell%20id%3D%222%22%20value%3D%22%22%20style%3D%22shape%3Dimage%3Bhtml%3D1%3BverticalAlign%3Dtop%3BverticalLabelPosition%3Dbottom%3BlabelBackgroundColor%3D%23ffffff%3BimageAspect%3D0%3Baspect%3Dfixed%3Bimage%3Dhttps%3A%2F%2Fcdn3.iconfinder.com%2Fdata%2Ficons%2Fbasic-interface%2F100%2Fblock_user-128.png%22%20vertex%3D%221%22%20parent%3D%221%22%3E%3CmxGeometry%20x%3D%22650%22%20y%3D%22250%22%20width%3D%2244%22%20height%3D%2244%22%20as%3D%22geometry%22%2F%3E%3C%2FmxCell%3E%3C%2Froot%3E%3C%2FmxGraphModel%3E&lt;/span&gt;" style="shape=image;html=1;verticalAlign=top;verticalLabelPosition=bottom;labelBackgroundColor=#ffffff;imageAspect=0;aspect=fixed;image=https://cdn3.iconfinder.com/data/icons/basic-interface/100/block_user-128.png" vertex="1" parent="1">
          <mxGeometry x="700" y="250" width="44" height="44" as="geometry" />
        </mxCell>
        <mxCell id="XMP97ZdrjGqu_RQCuz5n-51" value="Text" style="text;html=1;align=center;verticalAlign=middle;resizable=0;points=[];autosize=1;strokeColor=none;fillColor=none;" vertex="1" parent="1">
          <mxGeometry x="90" y="-70" width="40" height="20" as="geometry" />
        </mxCell>
      </root>
    </mxGraphModel>
  </diagram>
</mxfile>
